<svg width="138" height="137" viewBox="0 0 138 137" fill="currentColor" xmlns="http://www.w3.org/2000/svg">
<path d="M114.9 0.000198364C127.7 0.000407098 138 10.3 138 23.0998V113C138 125.8 127.7 136.1 114.9 136.1H23.0996C10.2999 136.1 0.000107257 125.7 0 113V23.0998C0.000103343 10.3 10.2999 0.000408135 23.0996 0.000198364H114.9ZM81.4004 28.8C80.7004 28.9 80.1 29.3002 80 30.0002L72.5 91.5998C71.7 97.6996 68.7002 98.1 64.4004 98.3C62.6006 98.4 61.1003 98.4002 59.9004 98.5002C58.6004 98.5002 58.1004 98.8004 57.9004 100.2L57.2998 105V105.5C57.2999 106.6 58.0999 106.7 58.7998 106.8C60.2998 107 61.1 107.2 66.7998 107.2C76.4998 107.2 84.6002 104.2 86.2002 91.3L93.9004 30.0002C93.9004 29.4003 93.6001 29.0003 92.9004 29.0002H92.7002L81.4004 28.8ZM52.2002 28.8C51.4004 28.9 51.3002 29.1999 51.2002 29.8996L44.0996 89.2004L44 89.3996C44 90.0995 44.5999 90.5001 45.2998 90.5002H56.4004C57.2002 90.5 57.8004 89.9999 57.9004 89.3L65.0996 30.0002V29.8C65.0996 29.2001 64.8001 28.8001 64.2002 28.8H52.2002Z" />
</svg>
